<mxfile host="app.diagrams.net" modified="2023-09-09T00:31:38.077Z" agent="Mozilla/5.0 (Windows NT 10.0; Win64; x64) AppleWebKit/537.36 (KHTML, like Gecko) Chrome/116.0.0.0 Safari/537.36" version="21.7.0" etag="l57ggEhWo3_uAHVvCn_D" type="github">
  <diagram name="Page-1" id="kcO-i61-81mNvcC9bY4A">
    <mxGraphModel>
      <root>
        <mxCell id="0" />
        <mxCell id="1" parent="0" />
      </root>
    </mxGraphModel>
  </diagram>
</mxfile>
